<?xml version="1.0" encoding="UTF-8" standalone="no"?>
<!DOCTYPE svg PUBLIC "-//W3C//DTD SVG 1.1//EN"
 "http://www.w3.org/Graphics/SVG/1.1/DTD/svg11.dtd">
<!-- Generated by graphviz version 2.26.3 (20100126.1600)
 -->
<!-- Title: controllers_diagram Pages: 1 -->
<svg width="710pt" height="537pt"
 viewBox="0.00 0.00 710.00 537.00" xmlns="http://www.w3.org/2000/svg" xmlns:xlink="http://www.w3.org/1999/xlink">
<g id="graph1" class="graph" transform="scale(1 1) rotate(0) translate(4 533)">
<title>controllers_diagram</title>
<polygon fill="white" stroke="white" points="-4,5 -4,-533 707,-533 707,5 -4,5"/>
<!-- _diagram_info -->
<g id="node1" class="node"><title>_diagram_info</title>
<text text-anchor="start" x="97" y="-78.3" font-family="Times Roman,serif" font-size="13.00">Controllers diagram</text>
<text text-anchor="start" x="97" y="-61.3" font-family="Times Roman,serif" font-size="13.00">Date: Mar 11 2012 &#45; 02:50</text>
<text text-anchor="start" x="97" y="-44.3" font-family="Times Roman,serif" font-size="13.00">Migration version: 0</text>
<text text-anchor="start" x="97" y="-27.3" font-family="Times Roman,serif" font-size="13.00">Generated by RailRoady 1.0.7</text>
<text text-anchor="start" x="97" y="-10.3" font-family="Times Roman,serif" font-size="13.00">http://railroady.prestonlee.com</text>
</g>
<!-- InvestigationsController -->
<g id="node2" class="node"><title>InvestigationsController</title>
<polyline fill="none" stroke="black" points="189,-133.5 403,-133.5 "/>
<path fill="none" stroke="black" d="M403,-133.5C409,-133.5 415,-139.5 415,-145.5"/>
<polyline fill="none" stroke="black" points="415,-145.5 415,-295.5 "/>
<path fill="none" stroke="black" d="M415,-295.5C415,-301.5 409,-307.5 403,-307.5"/>
<polyline fill="none" stroke="black" points="403,-307.5 189,-307.5 "/>
<path fill="none" stroke="black" d="M189,-307.5C183,-307.5 177,-301.5 177,-295.5"/>
<polyline fill="none" stroke="black" points="177,-295.5 177,-145.5 "/>
<path fill="none" stroke="black" d="M177,-145.5C177,-139.5 183,-133.5 189,-133.5"/>
<text text-anchor="middle" x="296" y="-290.9" font-family="Times Roman,serif" font-size="14.00">InvestigationsController</text>
<polyline fill="none" stroke="black" points="177,-281.5 415,-281.5 "/>
<text text-anchor="start" x="185" y="-264.9" font-family="Times Roman,serif" font-size="14.00">_one_time_conditions_valid_46?</text>
<text text-anchor="start" x="185" y="-246.9" font-family="Times Roman,serif" font-size="14.00">create</text>
<text text-anchor="start" x="185" y="-228.9" font-family="Times Roman,serif" font-size="14.00">destroy</text>
<polyline fill="none" stroke="black" points="177,-219.5 415,-219.5 "/>
<polyline fill="none" stroke="black" points="177,-195.5 415,-195.5 "/>
<text text-anchor="start" x="185" y="-178.9" font-family="Times Roman,serif" font-size="14.00">_layout</text>
<text text-anchor="start" x="185" y="-160.9" font-family="Times Roman,serif" font-size="14.00">_run_process_action_callbacks</text>
<text text-anchor="start" x="185" y="-142.9" font-family="Times Roman,serif" font-size="14.00">load_patient</text>
</g>
<!-- InitialTreatmentsController -->
<g id="node3" class="node"><title>InitialTreatmentsController</title>
<polyline fill="none" stroke="black" points="453,-353.5 667,-353.5 "/>
<path fill="none" stroke="black" d="M667,-353.5C673,-353.5 679,-359.5 679,-365.5"/>
<polyline fill="none" stroke="black" points="679,-365.5 679,-515.5 "/>
<path fill="none" stroke="black" d="M679,-515.5C679,-521.5 673,-527.5 667,-527.5"/>
<polyline fill="none" stroke="black" points="667,-527.5 453,-527.5 "/>
<path fill="none" stroke="black" d="M453,-527.5C447,-527.5 441,-521.5 441,-515.5"/>
<polyline fill="none" stroke="black" points="441,-515.5 441,-365.5 "/>
<path fill="none" stroke="black" d="M441,-365.5C441,-359.5 447,-353.5 453,-353.5"/>
<text text-anchor="middle" x="560" y="-510.9" font-family="Times Roman,serif" font-size="14.00">InitialTreatmentsController</text>
<polyline fill="none" stroke="black" points="441,-501.5 679,-501.5 "/>
<text text-anchor="start" x="449" y="-484.9" font-family="Times Roman,serif" font-size="14.00">_one_time_conditions_valid_52?</text>
<text text-anchor="start" x="449" y="-466.9" font-family="Times Roman,serif" font-size="14.00">create</text>
<text text-anchor="start" x="449" y="-448.9" font-family="Times Roman,serif" font-size="14.00">destroy</text>
<polyline fill="none" stroke="black" points="441,-439.5 679,-439.5 "/>
<polyline fill="none" stroke="black" points="441,-415.5 679,-415.5 "/>
<text text-anchor="start" x="449" y="-398.9" font-family="Times Roman,serif" font-size="14.00">_layout</text>
<text text-anchor="start" x="449" y="-380.9" font-family="Times Roman,serif" font-size="14.00">_run_process_action_callbacks</text>
<text text-anchor="start" x="449" y="-362.9" font-family="Times Roman,serif" font-size="14.00">load_patient</text>
</g>
<!-- ApplicationController -->
<g id="node4" class="node"><title>ApplicationController</title>
<polyline fill="none" stroke="black" points="167,-375.5 381,-375.5 "/>
<path fill="none" stroke="black" d="M381,-375.5C387,-375.5 393,-381.5 393,-387.5"/>
<polyline fill="none" stroke="black" points="393,-387.5 393,-501.5 "/>
<path fill="none" stroke="black" d="M393,-501.5C393,-507.5 387,-513.5 381,-513.5"/>
<polyline fill="none" stroke="black" points="381,-513.5 167,-513.5 "/>
<path fill="none" stroke="black" d="M167,-513.5C161,-513.5 155,-507.5 155,-501.5"/>
<polyline fill="none" stroke="black" points="155,-501.5 155,-387.5 "/>
<path fill="none" stroke="black" d="M155,-387.5C155,-381.5 161,-375.5 167,-375.5"/>
<text text-anchor="middle" x="274" y="-496.9" font-family="Times Roman,serif" font-size="14.00">ApplicationController</text>
<polyline fill="none" stroke="black" points="155,-487.5 393,-487.5 "/>
<text text-anchor="start" x="163" y="-470.9" font-family="Times Roman,serif" font-size="14.00">_one_time_conditions_valid_38?</text>
<text text-anchor="start" x="163" y="-452.9" font-family="Times Roman,serif" font-size="14.00">_one_time_conditions_valid_40?</text>
<polyline fill="none" stroke="black" points="155,-443.5 393,-443.5 "/>
<polyline fill="none" stroke="black" points="155,-419.5 393,-419.5 "/>
<text text-anchor="start" x="163" y="-402.9" font-family="Times Roman,serif" font-size="14.00">_layout</text>
<text text-anchor="start" x="163" y="-384.9" font-family="Times Roman,serif" font-size="14.00">_run_process_action_callbacks</text>
</g>
<!-- PatientsController -->
<g id="node5" class="node"><title>PatientsController</title>
<polyline fill="none" stroke="black" points="13,-133.5 131,-133.5 "/>
<path fill="none" stroke="black" d="M131,-133.5C137,-133.5 143,-139.5 143,-145.5"/>
<polyline fill="none" stroke="black" points="143,-145.5 143,-331.5 "/>
<path fill="none" stroke="black" d="M143,-331.5C143,-337.5 137,-343.5 131,-343.5"/>
<polyline fill="none" stroke="black" points="131,-343.5 13,-343.5 "/>
<path fill="none" stroke="black" d="M13,-343.5C7,-343.5 1,-337.5 1,-331.5"/>
<polyline fill="none" stroke="black" points="1,-331.5 1,-145.5 "/>
<path fill="none" stroke="black" d="M1,-145.5C1,-139.5 7,-133.5 13,-133.5"/>
<text text-anchor="middle" x="72" y="-326.9" font-family="Times Roman,serif" font-size="14.00">PatientsController</text>
<polyline fill="none" stroke="black" points="1,-317.5 143,-317.5 "/>
<text text-anchor="start" x="9" y="-300.9" font-family="Times Roman,serif" font-size="14.00">create</text>
<text text-anchor="start" x="9" y="-282.9" font-family="Times Roman,serif" font-size="14.00">destroy</text>
<text text-anchor="start" x="9" y="-264.9" font-family="Times Roman,serif" font-size="14.00">edit</text>
<text text-anchor="start" x="9" y="-246.9" font-family="Times Roman,serif" font-size="14.00">index</text>
<text text-anchor="start" x="9" y="-228.9" font-family="Times Roman,serif" font-size="14.00">new</text>
<text text-anchor="start" x="9" y="-210.9" font-family="Times Roman,serif" font-size="14.00">show</text>
<text text-anchor="start" x="9" y="-192.9" font-family="Times Roman,serif" font-size="14.00">update</text>
<polyline fill="none" stroke="black" points="1,-183.5 143,-183.5 "/>
<polyline fill="none" stroke="black" points="1,-159.5 143,-159.5 "/>
<text text-anchor="start" x="9" y="-142.9" font-family="Times Roman,serif" font-size="14.00">_layout</text>
</g>
<!-- ComplaintsController -->
<g id="node6" class="node"><title>ComplaintsController</title>
<polyline fill="none" stroke="black" points="475,-67.5 689,-67.5 "/>
<path fill="none" stroke="black" d="M689,-67.5C695,-67.5 701,-73.5 701,-79.5"/>
<polyline fill="none" stroke="black" points="701,-79.5 701,-229.5 "/>
<path fill="none" stroke="black" d="M701,-229.5C701,-235.5 695,-241.5 689,-241.5"/>
<polyline fill="none" stroke="black" points="689,-241.5 475,-241.5 "/>
<path fill="none" stroke="black" d="M475,-241.5C469,-241.5 463,-235.5 463,-229.5"/>
<polyline fill="none" stroke="black" points="463,-229.5 463,-79.5 "/>
<path fill="none" stroke="black" d="M463,-79.5C463,-73.5 469,-67.5 475,-67.5"/>
<text text-anchor="middle" x="582" y="-224.9" font-family="Times Roman,serif" font-size="14.00">ComplaintsController</text>
<polyline fill="none" stroke="black" points="463,-215.5 701,-215.5 "/>
<text text-anchor="start" x="471" y="-198.9" font-family="Times Roman,serif" font-size="14.00">_one_time_conditions_valid_98?</text>
<text text-anchor="start" x="471" y="-180.9" font-family="Times Roman,serif" font-size="14.00">create</text>
<text text-anchor="start" x="471" y="-162.9" font-family="Times Roman,serif" font-size="14.00">destroy</text>
<polyline fill="none" stroke="black" points="463,-153.5 701,-153.5 "/>
<polyline fill="none" stroke="black" points="463,-129.5 701,-129.5 "/>
<text text-anchor="start" x="471" y="-112.9" font-family="Times Roman,serif" font-size="14.00">_layout</text>
<text text-anchor="start" x="471" y="-94.9" font-family="Times Roman,serif" font-size="14.00">_run_process_action_callbacks</text>
<text text-anchor="start" x="471" y="-76.9" font-family="Times Roman,serif" font-size="14.00">load_patient</text>
</g>
</g>
</svg>
