<?xml version="1.0" encoding="UTF-8" standalone="no"?>
<!DOCTYPE svg PUBLIC "-//W3C//DTD SVG 1.1//EN"
 "http://www.w3.org/Graphics/SVG/1.1/DTD/svg11.dtd">
<!-- Generated by graphviz version 2.26.3 (20100126.1600)
 -->
<!-- Title: models_diagram Pages: 1 -->
<svg width="512pt" height="176pt"
 viewBox="0.00 0.00 512.00 176.00" xmlns="http://www.w3.org/2000/svg" xmlns:xlink="http://www.w3.org/1999/xlink">
<g id="graph1" class="graph" transform="scale(1 1) rotate(0) translate(4 172)">
<title>models_diagram</title>
<polygon fill="white" stroke="white" points="-4,5 -4,-172 509,-172 509,5 -4,5"/>
<!-- _diagram_info -->
<g id="node1" class="node"><title>_diagram_info</title>
<text text-anchor="start" x="8" y="-151.8" font-family="Times Roman,serif" font-size="13.00">Models diagram</text>
<text text-anchor="start" x="8" y="-134.8" font-family="Times Roman,serif" font-size="13.00">Date: Mar 11 2012 &#45; 02:49</text>
<text text-anchor="start" x="8" y="-117.8" font-family="Times Roman,serif" font-size="13.00">Migration version: 0</text>
<text text-anchor="start" x="8" y="-100.8" font-family="Times Roman,serif" font-size="13.00">Generated by RailRoady 1.0.7</text>
<text text-anchor="start" x="8" y="-83.8" font-family="Times Roman,serif" font-size="13.00">http://railroady.prestonlee.com</text>
</g>
<!-- Investigation -->
<g id="node2" class="node"><title>Investigation</title>
<ellipse fill="none" stroke="black" cx="91" cy="-19" rx="75.1594" ry="18.3848"/>
<text text-anchor="middle" x="91" y="-15.4" font-family="Times Roman,serif" font-size="14.00">Investigation</text>
</g>
<!-- InitialTreatment -->
<g id="node3" class="node"><title>InitialTreatment</title>
<ellipse fill="none" stroke="black" cx="274" cy="-19" rx="89.8026" ry="18.3848"/>
<text text-anchor="middle" x="274" y="-15.4" font-family="Times Roman,serif" font-size="14.00">InitialTreatment</text>
</g>
<!-- Patient -->
<g id="node4" class="node"><title>Patient</title>
<ellipse fill="none" stroke="black" cx="274" cy="-121" rx="46.1672" ry="18.3848"/>
<text text-anchor="middle" x="274" y="-117.4" font-family="Times Roman,serif" font-size="14.00">Patient</text>
</g>
<!-- Patient&#45;&gt;Investigation -->
<g id="edge4" class="edge"><title>Patient&#45;&gt;Investigation</title>
<path fill="none" stroke="#13d788" d="M250.148,-97.875C240.9,-89.6679 229.918,-80.7918 219,-74 195.805,-59.5714 168.163,-47.169 144.513,-37.8133"/>
<ellipse fill="none" stroke="#13d788" cx="253.29" cy="-100.727" rx="4.00002" ry="4.00002"/>
<polygon fill="#13d788" stroke="#13d788" points="144.311,-37.7353 136.612,-29.9264 139.649,-35.9289 134.986,-34.1225 134.986,-34.1225 134.986,-34.1225 139.649,-35.9289 133.361,-38.3185 144.311,-37.7353 144.311,-37.7353"/>
</g>
<!-- Patient&#45;&gt;InitialTreatment -->
<g id="edge6" class="edge"><title>Patient&#45;&gt;InitialTreatment</title>
<path fill="none" stroke="#9f9da7" d="M274,-94.0151C274,-79.8348 274,-62.4446 274,-47.9795"/>
<ellipse fill="none" stroke="#9f9da7" cx="274" cy="-98.2916" rx="4" ry="4"/>
<polygon fill="#9f9da7" stroke="#9f9da7" points="274,-47.5898 278.5,-37.5897 274,-42.5898 274,-37.5898 274,-37.5898 274,-37.5898 274,-42.5898 269.5,-37.5898 274,-47.5898 274,-47.5898"/>
</g>
<!-- Complaint -->
<g id="node6" class="node"><title>Complaint</title>
<ellipse fill="none" stroke="black" cx="443" cy="-19" rx="60.8112" ry="18.3848"/>
<text text-anchor="middle" x="443" y="-15.4" font-family="Times Roman,serif" font-size="14.00">Complaint</text>
</g>
<!-- Patient&#45;&gt;Complaint -->
<g id="edge2" class="edge"><title>Patient&#45;&gt;Complaint</title>
<path fill="none" stroke="#3ccff8" d="M298.015,-98.1308C307.281,-89.9521 318.233,-81.0287 329,-74 350.319,-60.0837 375.69,-47.4988 397.079,-37.8903"/>
<ellipse fill="none" stroke="#3ccff8" cx="294.865" cy="-100.966" rx="4.00002" ry="4.00002"/>
<polygon fill="#3ccff8" stroke="#3ccff8" points="397.139,-37.864 408.105,-37.9423 401.713,-35.8448 406.287,-33.8256 406.287,-33.8256 406.287,-33.8256 401.713,-35.8448 404.47,-29.7088 397.139,-37.864 397.139,-37.864"/>
</g>
<!-- User -->
<g id="node5" class="node"><title>User</title>
<ellipse fill="none" stroke="black" cx="372" cy="-121" rx="33.9411" ry="18.3848"/>
<text text-anchor="middle" x="372" y="-117.4" font-family="Times Roman,serif" font-size="14.00">User</text>
</g>
</g>
</svg>
